# xmcd
#
# Track frame offsets: 
#        150
#        18742
#        41102
#        59182
#        76687
#        95257
#        112825
#        136815
#        155790
#        176892
#        196195
#        217252
#        235502
#        261682
#        274675
#        293075
#        304332
#        304972
#
# Disc length: 4273 seconds
#
# Revision: 12
# Processed by: cddbd v1.5.2PL0 Copyright (c) Steve Scherf et al.
# Submitted via: ExactAudioCopyFreeDBPlugin 1.0
#
DISCID=1010af12
DTITLE=Michael Jackson - Bad (Special Edition in Japan)
DYEAR=1987
DGENRE=Pop
TTITLE0=Bad
TTITLE1=The Way You Make Me Feel
TTITLE2=Speed Demon
TTITLE3=Liberian Girl
TTITLE4=Just Good Friends
TTITLE5=Another Part Of Me
TTITLE6=Man In The Mirror
TTITLE7=I Just Can't Stop Loving You
TTITLE8=Dirty Diana
TTITLE9=Smooth Criminal
TTITLE10=Leave Me Alone
TTITLE11=Quincy Jones Interview #1
TTITLE12=Streetwalker
TTITLE13=Jones Interview #2
TTITLE14=Todo Mi Amor Eres Tu (I Just Can't Stop Loving You)
TTITLE15=Quincy Jones Interview #3
TTITLE16=Voice-Over Intro 'Fly Away'
TTITLE17=Fly Away
EXTD=YEAR: 1987
EXTT0=
EXTT1=
EXTT2=
EXTT3=
EXTT4=
EXTT5=
EXTT6=
EXTT7=
EXTT8=
EXTT9=
EXTT10=
EXTT11=
EXTT12=
EXTT13=
EXTT14=
EXTT15=
EXTT16=
EXTT17=
PLAYORDER=
